<svg width="17" height="16" viewBox="0 0 17 16" fill="none" xmlns="http://www.w3.org/2000/svg">
<path d="M10.4999 7.33334C10.7526 7.33334 10.9832 7.476 11.0966 7.702C11.2093 7.928 11.1853 8.198 11.0333 8.39997L9.03329 11.0666C9.02881 11.0725 9.02292 11.0764 9.01707 11.0802C9.01158 11.0839 9.00614 11.0875 9.00195 11.0926C8.95795 11.1446 8.90595 11.1846 8.84795 11.2213C8.83876 11.2271 8.83019 11.2336 8.82163 11.24C8.80846 11.25 8.79531 11.26 8.77995 11.2673C8.69395 11.3073 8.60064 11.3333 8.49995 11.3333C8.39926 11.3333 8.30595 11.3073 8.22061 11.2673C8.2051 11.2601 8.19221 11.2504 8.17923 11.2405C8.17046 11.2339 8.16164 11.2272 8.15195 11.2213C8.09395 11.1846 8.04195 11.1446 7.99795 11.0926C7.99355 11.0876 7.98826 11.0841 7.98299 11.0805C7.97708 11.0766 7.97119 11.0726 7.96661 11.0666L5.96661 8.39997C5.81526 8.19797 5.79126 7.92797 5.90326 7.70197C6.01658 7.47597 6.24726 7.33331 6.49992 7.33331H7.83326V0.666656C7.83326 0.298656 8.13126 0 8.49992 0C8.86858 0 9.16657 0.298656 9.16657 0.666656V7.33334H10.4999Z" fill="white"/>
<path d="M15.1667 10.6667C15.1667 10.2987 15.4647 10 15.8333 10C16.202 10 16.5 10.2987 16.5 10.6667V12.6667C16.5 14.5047 15.0047 16 13.1667 16H3.83335C1.99535 16 0.5 14.5047 0.5 12.6667V10.6667C0.5 10.2987 0.797999 10 1.16669 10C1.53534 10 1.83335 10.2987 1.83335 10.6667V12.6667C1.83335 13.7693 2.73069 14.6667 3.83335 14.6667H13.1667C14.2693 14.6667 15.1667 13.7693 15.1667 12.6667V10.6667Z" fill="white"/>
</svg>
