<?xml version="1.0" encoding="iso-8859-1"?>
<!-- Generator: Adobe Illustrator 19.0.0, SVG Export Plug-In . SVG Version: 6.00 Build 0)  -->
<svg version="1.1" id="Layer_1" xmlns="http://www.w3.org/2000/svg" xmlns:xlink="http://www.w3.org/1999/xlink" x="0px" y="0px"
	 viewBox="0 0 512 512" style="enable-background:new 0 0 512 512;" xml:space="preserve">
<g>
	<g>
		<g>
			<path d="M149.333,0H64C28.715,0,0,28.715,0,64v85.333c0,35.285,28.715,64,64,64h85.333c35.285,0,64-28.715,64-64V64
				C213.333,28.715,184.619,0,149.333,0z"/>
			<path d="M448,0h-85.333c-35.285,0-64,28.715-64,64v85.333c0,35.285,28.715,64,64,64H448c35.285,0,64-28.715,64-64V64
				C512,28.715,483.285,0,448,0z"/>
			<path d="M149.333,298.667H64c-35.285,0-64,28.715-64,64V448c0,35.285,28.715,64,64,64h85.333c35.285,0,64-28.715,64-64v-85.333
				C213.333,327.381,184.619,298.667,149.333,298.667z"/>
			<path d="M490.667,384h-64v-64c0-11.776-9.536-21.333-21.333-21.333C393.536,298.667,384,308.224,384,320v64h-64
				c-11.797,0-21.333,9.557-21.333,21.333s9.536,21.333,21.333,21.333h64v64c0,11.776,9.536,21.333,21.333,21.333
				c11.797,0,21.333-9.557,21.333-21.333v-64h64c11.797,0,21.333-9.557,21.333-21.333S502.464,384,490.667,384z"/>
		</g>
	</g>
</g>
<g>
</g>
<g>
</g>
<g>
</g>
<g>
</g>
<g>
</g>
<g>
</g>
<g>
</g>
<g>
</g>
<g>
</g>
<g>
</g>
<g>
</g>
<g>
</g>
<g>
</g>
<g>
</g>
<g>
</g>
</svg>
