<svg width="19" height="19" viewBox="0 0 19 19" fill="none" xmlns="http://www.w3.org/2000/svg">
<path d="M17.9245 5.53052C18.6415 6.24413 18.6415 7.40376 17.9245 8.02817L15.4151 10.5258L8.42453 3.56807L10.934 1.07042C11.6509 0.356808 12.816 0.356808 13.4434 1.07042L15.0566 2.67606L17.7453 0L19 1.24883L16.3113 3.92488L17.9245 5.53052ZM12.7264 10.7042L11.4717 9.4554L8.96226 11.9531L7.08019 10.0798L9.58962 7.58216L8.33491 6.33333L5.82547 8.83099L4.48113 7.58216L1.9717 10.0798C1.25472 10.7934 1.25472 11.9531 1.9717 12.5775L3.58491 14.1831L0 17.7512L1.25472 19L4.83962 15.4319L6.45283 17.0376C7.16981 17.7512 8.33491 17.7512 8.96226 17.0376L11.4717 14.5399L10.217 13.2911L12.7264 10.7042Z" fill="#00FF19"/>
</svg>
