<?xml version="1.0" encoding="iso-8859-1"?>
<!-- Generator: Adobe Illustrator 18.1.1, SVG Export Plug-In . SVG Version: 6.00 Build 0)  -->
<svg version="1.1" id="Capa_1" xmlns="http://www.w3.org/2000/svg" xmlns:xlink="http://www.w3.org/1999/xlink" x="0px" y="0px"
	 viewBox="0 0 143.734 143.734" style="enable-background:new 0 0 143.734 143.734;" xml:space="preserve">
<g>
	<path fill="#000" d="M119.743,103.298l-29.84-29.84l24.22-24.22c7.864,1.826,16.457-0.269,22.597-6.408
		c6.719-6.713,8.562-16.367,5.74-24.81l-11.403,11.397c-4.034,4.046-10.693,3.92-14.893-0.28
		c-4.183-4.189-4.314-10.848-0.286-14.887l11.397-11.397c-8.425-2.84-18.074-0.985-24.804,5.74
		c-6.128,6.122-8.216,14.714-6.385,22.591l-24.22,24.214L47.657,31.189c1.826-7.87-0.28-16.463-6.402-22.597
		c-6.713-6.719-16.361-8.568-24.804-5.746l11.397,11.403c4.04,4.034,3.92,10.699-0.286,14.893
		c-4.189,4.189-10.836,4.314-14.887,0.286L1.277,18.026c-2.828,8.431-0.979,18.092,5.752,24.81
		c6.116,6.134,14.708,8.216,22.591,6.396l24.208,24.202l-29.834,29.834c-5.43-0.376-10.979,1.426-15.114,5.585
		c-7.626,7.614-7.626,19.965,0,27.591c7.602,7.608,19.959,7.608,27.573,0c4.147-4.147,5.943-9.702,5.597-15.132l29.816-29.828
		l29.84,29.84c-0.37,5.43,1.438,10.985,5.585,15.126c7.608,7.62,19.971,7.62,27.585,0c7.614-7.614,7.614-19.965,0-27.585
		C130.728,104.719,125.173,102.917,119.743,103.298z M25.311,132.56l-9.923-2.649l-2.643-9.923l7.25-7.262l9.923,2.655l2.655,9.917
		L25.311,132.56z M128.335,129.929l-9.917,2.643l-7.262-7.262l2.649-9.917l9.923-2.655l7.268,7.262L128.335,129.929z"/>
</g>
<g>
</g>
<g>
</g>
<g>
</g>
<g>
</g>
<g>
</g>
<g>
</g>
<g>
</g>
<g>
</g>
<g>
</g>
<g>
</g>
<g>
</g>
<g>
</g>
<g>
</g>
<g>
</g>
<g>
</g>
</svg>
