<svg width="20" height="20" viewBox="0 0 20 20" fill="none" xmlns="http://www.w3.org/2000/svg">
<path d="M19.6538 12.1917L17.766 10.7542C17.7899 10.5325 17.8105 10.2734 17.8105 9.99918C17.8105 9.725 17.7908 9.46586 17.766 9.24418L19.6555 7.80586C20.0064 7.53586 20.1022 7.05668 19.8789 6.65754L17.9157 3.35C17.706 2.97668 17.2465 2.785 16.7801 2.9525L14.5526 3.82332C14.1256 3.52332 13.678 3.27 13.215 3.0675L12.8761 0.76668C12.8205 0.33 12.4303 0 11.969 0H8.03253C7.57126 0 7.18191 0.33 7.12712 0.76L6.78739 3.06918C6.33896 3.26586 5.89826 3.51586 5.4524 3.825L3.21885 2.95168C2.80034 2.79418 2.29972 2.97082 2.09177 3.3425L0.126108 6.65418C-0.105791 7.03586 -0.00995902 7.53168 0.34862 7.80836L2.23642 9.24586C2.20646 9.52668 2.19194 9.77086 2.19194 10C2.19194 10.2292 2.2065 10.4734 2.23642 10.755L0.346895 12.1934C-0.00398203 12.4642 -0.0989719 12.9434 0.124383 13.3417L2.08752 16.6492C2.2972 17.0217 2.75245 17.215 3.22311 17.0467L5.45067 16.1759C5.87684 16.475 6.3244 16.7284 6.78739 16.9317L7.12627 19.2317C7.18187 19.67 7.57126 20 8.03337 20H11.9699C12.4311 20 12.8214 19.67 12.8761 19.24L13.2159 16.9317C13.6643 16.7342 14.1041 16.485 14.5508 16.175L16.7844 17.0483C16.8922 17.0891 17.0043 17.11 17.1199 17.11C17.4519 17.11 17.7574 16.9333 17.9114 16.6583L19.8831 13.3333C20.1022 12.9433 20.0063 12.4642 19.6538 12.1917ZM10.0008 13.3333C8.11296 13.3333 6.57772 11.8383 6.57772 10C6.57772 8.16168 8.11296 6.66668 10.0008 6.66668C11.8886 6.66668 13.4238 8.16168 13.4238 10C13.4238 11.8383 11.8886 13.3333 10.0008 13.3333Z" fill="#000"/>
</svg>
