<svg width="21" height="24" viewBox="0 0 21 24" fill="none" xmlns="http://www.w3.org/2000/svg">
<path d="M14.9163 9.86737C13.7925 10.9913 12.4172 11.5609 10.829 11.5609C9.24109 11.5609 7.86597 10.9911 6.74207 9.86755C5.61816 8.74384 5.04834 7.36871 5.04834 5.78027C5.04834 4.1922 5.61816 2.81708 6.74188 1.69336C7.8656 0.569641 9.24054 0 10.829 0C12.4171 0 13.7922 0.569641 14.9161 1.69318C16.04 2.81726 16.6096 4.19238 16.6096 5.78027C16.6096 7.36871 16.04 8.74365 14.9163 9.86737Z" fill="#000"/>
<path d="M20.7491 16.9384C20.8456 17.4771 20.9111 17.9872 20.9435 18.4549C20.9756 18.9119 20.9919 19.3889 20.9921 19.8725C20.9921 21.1259 20.5938 22.1403 19.8083 22.8877C19.0325 23.626 18.0065 24.0002 16.7585 24.0002H5.20233C3.95428 24.0002 2.92798 23.6258 2.15234 22.8877C1.367 22.1397 0.96875 21.1255 0.96875 19.8727C0.96875 19.3913 0.984863 18.9147 1.01672 18.4554C1.04913 17.9867 1.11469 17.4764 1.21118 16.9384C1.30859 16.3957 1.43402 15.8828 1.58398 15.4139C1.73926 14.9288 1.9502 14.4504 2.21075 13.9917C2.48102 13.5158 2.79907 13.1014 3.15558 12.7601C3.52893 12.4029 3.98578 12.116 4.51349 11.907C5.03955 11.6987 5.62256 11.593 6.24658 11.593C6.49158 11.593 6.7287 11.6935 7.18573 11.9915C7.47156 12.1777 7.80115 12.3901 8.16534 12.6228C8.47937 12.8231 8.90527 13.0108 9.43079 13.1805C9.94458 13.3466 10.4655 13.4308 10.9799 13.4308C11.4942 13.4308 12.0153 13.3466 12.5286 13.1805C13.0546 13.0106 13.4805 12.8229 13.7949 12.6226C14.1626 12.3877 14.492 12.1753 14.7736 11.9916C15.2312 11.6937 15.4681 11.5932 15.7131 11.5932C16.337 11.5932 16.9202 11.6987 17.4464 11.9069C17.9745 12.1161 18.4312 12.4031 18.8041 12.7599C19.1608 13.1011 19.4787 13.5156 19.7493 13.9917C20.0101 14.4504 20.221 14.929 20.3761 15.4137C20.5262 15.8826 20.6517 16.3957 20.7491 16.9384Z" fill="#000"/>
</svg>
